<svg xmlns="http://www.w3.org/2000/svg" viewBox="0 0 512 512" fill="#5BC6E8">
  <!-- Palm leaves -->
  <path d="M256 160c-10-40-50-80-100-100 30 40 50 80 55 110-50-30-110-40-160-30 50 20 100 40 120 60-40-10-100 0-140 20 50 10 100 20 130 20H256z"/>
  <path d="M256 160c10-40 50-80 100-100-30 40-50 80-55 110 50-30 110-40 160-30-50 20-100 40-120 60 40-10 100 0 140 20-50 10-100 20-130 20H256z"/>
  <!-- Trunk / Building -->
  <path d="M232 200h48v30h-48z"/>
  <path d="M225 240h62v180l-8 20h-46l-8-20z"/>
  <!-- Windows grid -->
  <rect x="238" y="258" width="12" height="12" rx="1" fill="white"/>
  <rect x="262" y="258" width="12" height="12" rx="1" fill="white"/>
  <rect x="238" y="282" width="12" height="12" rx="1" fill="white"/>
  <rect x="262" y="282" width="12" height="12" rx="1" fill="white"/>
  <rect x="238" y="306" width="12" height="12" rx="1" fill="white"/>
  <rect x="262" y="306" width="12" height="12" rx="1" fill="white"/>
  <rect x="238" y="330" width="12" height="12" rx="1" fill="white"/>
  <rect x="262" y="330" width="12" height="12" rx="1" fill="white"/>
  <rect x="238" y="354" width="12" height="12" rx="1" fill="white"/>
  <rect x="262" y="354" width="12" height="12" rx="1" fill="white"/>
  <rect x="238" y="378" width="12" height="12" rx="1" fill="white"/>
  <rect x="262" y="378" width="12" height="12" rx="1" fill="white"/>
  <rect x="238" y="402" width="12" height="12" rx="1" fill="white"/>
  <rect x="262" y="402" width="12" height="12" rx="1" fill="white"/>
</svg>
